<svg xmlns="http://www.w3.org/2000/svg" viewBox="0 0 32 32" shape-rendering="crispEdges" width="256" height="256">
<rect x="13" y="3" width="2" height="1" fill="#245021"/>
<rect x="18" y="3" width="2" height="1" fill="#245021"/>
<rect x="11" y="4" width="3" height="1" fill="#245021"/>
<rect x="15" y="4" width="3" height="1" fill="#245021"/>
<rect x="19" y="4" width="3" height="1" fill="#245021"/>
<rect x="13" y="4" width="2" height="1" fill="#4f9e2e"/>
<rect x="18" y="4" width="1" height="1" fill="#4f9e2e"/>
<rect x="9" y="5" width="3" height="1" fill="#245021"/>
<rect x="14" y="5" width="2" height="1" fill="#245021"/>
<rect x="22" y="5" width="2" height="1" fill="#245021"/>
<rect x="11" y="5" width="3" height="1" fill="#4f9e2e"/>
<rect x="16" y="5" width="6" height="1" fill="#4f9e2e"/>
<rect x="8" y="6" width="2" height="1" fill="#245021"/>
<rect x="24" y="6" width="2" height="1" fill="#245021"/>
<rect x="10" y="6" width="4" height="1" fill="#2f6e2b"/>
<rect x="14" y="6" width="2" height="1" fill="#7bc25a"/>
<rect x="16" y="6" width="8" height="1" fill="#4f9e2e"/>
<rect x="7" y="7" width="1" height="2" fill="#245021"/>
<rect x="26" y="7" width="1" height="2" fill="#245021"/>
<rect x="8" y="7" width="3" height="1" fill="#2f6e2b"/>
<rect x="11" y="7" width="3" height="1" fill="#7bc25a"/>
<rect x="14" y="7" width="3" height="1" fill="#4f9e2e"/>
<rect x="17" y="7" width="2" height="1" fill="#7bc25a"/>
<rect x="19" y="7" width="7" height="1" fill="#2f6e2b"/>
<rect x="8" y="8" width="3" height="1" fill="#2f6e2b"/>
<rect x="11" y="8" width="2" height="1" fill="#7bc25a"/>
<rect x="13" y="8" width="6" height="1" fill="#4f9e2e"/>
<rect x="19" y="8" width="3" height="1" fill="#7bc25a"/>
<rect x="22" y="8" width="4" height="1" fill="#2f6e2b"/>
<rect x="6" y="9" width="1" height="3" fill="#245021"/>
<rect x="27" y="9" width="1" height="3" fill="#245021"/>
<rect x="7" y="9" width="4" height="1" fill="#2f6e2b"/>
<rect x="11" y="9" width="2" height="1" fill="#7bc25a"/>
<rect x="13" y="9" width="3" height="1" fill="#4f9e2e"/>
<rect x="16" y="9" width="2" height="1" fill="#7bc25a"/>
<rect x="18" y="9" width="3" height="1" fill="#4f9e2e"/>
<rect x="21" y="9" width="2" height="1" fill="#7bc25a"/>
<rect x="23" y="9" width="4" height="1" fill="#2f6e2b"/>
<rect x="7" y="10" width="3" height="1" fill="#2f6e2b"/>
<rect x="10" y="10" width="3" height="1" fill="#4f9e2e"/>
<rect x="13" y="10" width="2" height="1" fill="#7bc25a"/>
<rect x="15" y="10" width="3" height="1" fill="#4f9e2e"/>
<rect x="18" y="10" width="2" height="1" fill="#7bc25a"/>
<rect x="20" y="10" width="3" height="1" fill="#4f9e2e"/>
<rect x="23" y="10" width="4" height="1" fill="#2f6e2b"/>
<rect x="7" y="11" width="3" height="1" fill="#2f6e2b"/>
<rect x="10" y="11" width="4" height="1" fill="#4f9e2e"/>
<rect x="14" y="11" width="5" height="1" fill="#7bc25a"/>
<rect x="19" y="11" width="4" height="1" fill="#4f9e2e"/>
<rect x="23" y="11" width="4" height="1" fill="#2f6e2b"/>
<rect x="7" y="12" width="1" height="3" fill="#245021"/>
<rect x="26" y="12" width="1" height="3" fill="#245021"/>
<rect x="8" y="12" width="3" height="1" fill="#2f6e2b"/>
<rect x="11" y="12" width="3" height="1" fill="#4f9e2e"/>
<rect x="14" y="12" width="2" height="1" fill="#cfe6a0"/>
<rect x="16" y="12" width="2" height="1" fill="#7bc25a"/>
<rect x="18" y="12" width="2" height="1" fill="#cfe6a0"/>
<rect x="20" y="12" width="3" height="1" fill="#4f9e2e"/>
<rect x="23" y="12" width="3" height="1" fill="#2f6e2b"/>
<rect x="8" y="13" width="3" height="1" fill="#2f6e2b"/>
<rect x="11" y="13" width="3" height="1" fill="#4f9e2e"/>
<rect x="14" y="13" width="6" height="1" fill="#cfe6a0"/>
<rect x="20" y="13" width="3" height="1" fill="#4f9e2e"/>
<rect x="23" y="13" width="3" height="1" fill="#2f6e2b"/>
<rect x="8" y="14" width="4" height="1" fill="#2f6e2b"/>
<rect x="12" y="14" width="2" height="1" fill="#4f9e2e"/>
<rect x="14" y="14" width="6" height="1" fill="#cfe6a0"/>
<rect x="20" y="14" width="2" height="1" fill="#4f9e2e"/>
<rect x="22" y="14" width="4" height="1" fill="#2f6e2b"/>
<rect x="8" y="15" width="1" height="2" fill="#245021"/>
<rect x="25" y="15" width="1" height="2" fill="#245021"/>
<rect x="9" y="15" width="4" height="1" fill="#2f6e2b"/>
<rect x="13" y="15" width="2" height="1" fill="#4f9e2e"/>
<rect x="15" y="15" width="4" height="1" fill="#cfe6a0"/>
<rect x="19" y="15" width="2" height="1" fill="#4f9e2e"/>
<rect x="21" y="15" width="4" height="1" fill="#2f6e2b"/>
<rect x="9" y="16" width="5" height="1" fill="#2f6e2b"/>
<rect x="14" y="16" width="2" height="1" fill="#4f9e2e"/>
<rect x="16" y="16" width="2" height="1" fill="#cfe6a0"/>
<rect x="18" y="16" width="2" height="1" fill="#4f9e2e"/>
<rect x="20" y="16" width="5" height="1" fill="#2f6e2b"/>
<rect x="10" y="17" width="2" height="1" fill="#245021"/>
<rect x="12" y="17" width="10" height="1" fill="#2f6e2b"/>
<rect x="22" y="17" width="2" height="1" fill="#245021"/>
<rect x="12" y="18" width="2" height="1" fill="#245021"/>
<rect x="14" y="18" width="6" height="1" fill="#2f6e2b"/>
<rect x="20" y="18" width="2" height="1" fill="#245021"/>
<rect x="15" y="19" width="4" height="1" fill="#245021"/>
</svg>
