<svg xmlns="http://www.w3.org/2000/svg" viewBox="0 0 32 32" shape-rendering="crispEdges" width="256" height="256">
<!-- sand -->
<rect x="6" y="29" width="20" height="1" fill="#c9a96a"/>
<rect x="8" y="28" width="16" height="1" fill="#e6c48f"/>
<rect x="9" y="27" width="14" height="1" fill="#e6c48f"/>
<rect x="11" y="26" width="10" height="1" fill="#c9a96a"/>
<!-- trunk -->
<rect x="15" y="11" width="3" height="15" fill="#8a5a2a"/>
<rect x="14" y="11" width="1" height="15" fill="#5e3c18"/>
<rect x="18" y="11" width="1" height="15" fill="#a9744f"/>
<rect x="14" y="14" width="5" height="1" fill="#5e3c18"/>
<rect x="14" y="18" width="5" height="1" fill="#5e3c18"/>
<rect x="14" y="22" width="5" height="1" fill="#5e3c18"/>
<rect x="14" y="25" width="6" height="1" fill="#5e3c18"/>
<!-- fronds -->
<rect x="16" y="2" width="1" height="1" fill="#2f6e2b"/>
<rect x="8" y="3" width="2" height="1" fill="#2f6e2b"/>
<rect x="16" y="3" width="1" height="1" fill="#2f6e2b"/>
<rect x="23" y="3" width="2" height="1" fill="#2f6e2b"/>
<rect x="9" y="4" width="3" height="1" fill="#2f6e2b"/>
<rect x="15" y="4" width="1" height="1" fill="#2f6e2b"/>
<rect x="16" y="4" width="1" height="1" fill="#4f9e2e"/>
<rect x="17" y="4" width="1" height="1" fill="#2f6e2b"/>
<rect x="21" y="4" width="3" height="1" fill="#2f6e2b"/>
<rect x="9" y="5" width="1" height="1" fill="#2f6e2b"/>
<rect x="10" y="5" width="1" height="1" fill="#4f9e2e"/>
<rect x="11" y="5" width="1" height="1" fill="#6fb863"/>
<rect x="12" y="5" width="2" height="1" fill="#2f6e2b"/>
<rect x="15" y="5" width="1" height="1" fill="#2f6e2b"/>
<rect x="16" y="5" width="1" height="1" fill="#6fb863"/>
<rect x="17" y="5" width="1" height="1" fill="#2f6e2b"/>
<rect x="19" y="5" width="2" height="1" fill="#2f6e2b"/>
<rect x="21" y="5" width="1" height="1" fill="#6fb863"/>
<rect x="22" y="5" width="1" height="1" fill="#4f9e2e"/>
<rect x="23" y="5" width="1" height="1" fill="#2f6e2b"/>
<rect x="10" y="6" width="1" height="1" fill="#2f6e2b"/>
<rect x="11" y="6" width="2" height="1" fill="#6fb863"/>
<rect x="13" y="6" width="1" height="1" fill="#4f9e2e"/>
<rect x="14" y="6" width="2" height="1" fill="#2f6e2b"/>
<rect x="16" y="6" width="1" height="1" fill="#6fb863"/>
<rect x="17" y="6" width="2" height="1" fill="#2f6e2b"/>
<rect x="19" y="6" width="1" height="1" fill="#4f9e2e"/>
<rect x="20" y="6" width="2" height="1" fill="#6fb863"/>
<rect x="22" y="6" width="1" height="1" fill="#2f6e2b"/>
<rect x="6" y="7" width="1" height="1" fill="#2f6e2b"/>
<rect x="11" y="7" width="1" height="1" fill="#2f6e2b"/>
<rect x="12" y="7" width="2" height="1" fill="#6fb863"/>
<rect x="14" y="7" width="2" height="1" fill="#4f9e2e"/>
<rect x="16" y="7" width="1" height="1" fill="#6fb863"/>
<rect x="17" y="7" width="2" height="1" fill="#4f9e2e"/>
<rect x="19" y="7" width="2" height="1" fill="#6fb863"/>
<rect x="21" y="7" width="1" height="1" fill="#2f6e2b"/>
<rect x="26" y="7" width="1" height="1" fill="#2f6e2b"/>
<rect x="3" y="8" width="3" height="1" fill="#2f6e2b"/>
<rect x="6" y="8" width="1" height="1" fill="#4f9e2e"/>
<rect x="7" y="8" width="4" height="1" fill="#2f6e2b"/>
<rect x="11" y="8" width="2" height="1" fill="#4f9e2e"/>
<rect x="13" y="8" width="2" height="1" fill="#6fb863"/>
<rect x="15" y="8" width="3" height="1" fill="#4f9e2e"/>
<rect x="18" y="8" width="2" height="1" fill="#6fb863"/>
<rect x="20" y="8" width="2" height="1" fill="#4f9e2e"/>
<rect x="22" y="8" width="4" height="1" fill="#2f6e2b"/>
<rect x="26" y="8" width="1" height="1" fill="#4f9e2e"/>
<rect x="27" y="8" width="3" height="1" fill="#2f6e2b"/>
<rect x="5" y="9" width="1" height="1" fill="#2f6e2b"/>
<rect x="6" y="9" width="2" height="1" fill="#4f9e2e"/>
<rect x="8" y="9" width="5" height="1" fill="#6fb863"/>
<rect x="13" y="9" width="1" height="1" fill="#4f9e2e"/>
<rect x="14" y="9" width="1" height="1" fill="#6fb863"/>
<rect x="15" y="9" width="3" height="1" fill="#4f9e2e"/>
<rect x="18" y="9" width="1" height="1" fill="#6fb863"/>
<rect x="19" y="9" width="1" height="1" fill="#4f9e2e"/>
<rect x="20" y="9" width="5" height="1" fill="#6fb863"/>
<rect x="25" y="9" width="2" height="1" fill="#4f9e2e"/>
<rect x="27" y="9" width="1" height="1" fill="#2f6e2b"/>
<rect x="6" y="10" width="5" height="1" fill="#2f6e2b"/>
<rect x="11" y="10" width="2" height="1" fill="#4f9e2e"/>
<rect x="13" y="10" width="1" height="1" fill="#6fb863"/>
<rect x="14" y="10" width="2" height="1" fill="#4f9e2e"/>
<rect x="16" y="10" width="1" height="1" fill="#2f6e2b"/>
<rect x="17" y="10" width="2" height="1" fill="#4f9e2e"/>
<rect x="19" y="10" width="1" height="1" fill="#6fb863"/>
<rect x="20" y="10" width="2" height="1" fill="#4f9e2e"/>
<rect x="22" y="10" width="5" height="1" fill="#2f6e2b"/>
<rect x="9" y="11" width="2" height="1" fill="#2f6e2b"/>
<rect x="11" y="11" width="11" height="1" fill="#4f9e2e"/>
<rect x="22" y="11" width="2" height="1" fill="#2f6e2b"/>
<rect x="7" y="12" width="2" height="1" fill="#2f6e2b"/>
<rect x="9" y="12" width="6" height="1" fill="#4f9e2e"/>
<rect x="15" y="12" width="1" height="1" fill="#2f6e2b"/>
<rect x="16" y="12" width="1" height="1" fill="#4f9e2e"/>
<rect x="17" y="12" width="1" height="1" fill="#2f6e2b"/>
<rect x="18" y="12" width="6" height="1" fill="#4f9e2e"/>
<rect x="24" y="12" width="2" height="1" fill="#2f6e2b"/>
<rect x="6" y="13" width="1" height="1" fill="#2f6e2b"/>
<rect x="7" y="13" width="3" height="1" fill="#4f9e2e"/>
<rect x="10" y="13" width="1" height="1" fill="#2f6e2b"/>
<rect x="11" y="13" width="2" height="1" fill="#4f9e2e"/>
<rect x="13" y="13" width="2" height="1" fill="#2f6e2b"/>
<rect x="16" y="13" width="1" height="1" fill="#2f6e2b"/>
<rect x="18" y="13" width="2" height="1" fill="#2f6e2b"/>
<rect x="20" y="13" width="2" height="1" fill="#4f9e2e"/>
<rect x="22" y="13" width="1" height="1" fill="#2f6e2b"/>
<rect x="23" y="13" width="3" height="1" fill="#4f9e2e"/>
<rect x="26" y="13" width="1" height="1" fill="#2f6e2b"/>
<rect x="5" y="14" width="5" height="1" fill="#2f6e2b"/>
<rect x="11" y="14" width="2" height="1" fill="#2f6e2b"/>
<rect x="20" y="14" width="2" height="1" fill="#2f6e2b"/>
<rect x="23" y="14" width="5" height="1" fill="#2f6e2b"/>
</svg>
