<svg xmlns="http://www.w3.org/2000/svg" viewBox="0 0 32 32" shape-rendering="crispEdges" width="256" height="256">
<rect x="16" y="2" width="1" height="1" fill="#a01f1f"/>
<rect x="16" y="3" width="1" height="1" fill="#a01f1f"/>
<rect x="15" y="4" width="1" height="1" fill="#a01f1f"/>
<rect x="16" y="4" width="1" height="1" fill="#d23030"/>
<rect x="17" y="4" width="1" height="1" fill="#a01f1f"/>
<rect x="11" y="5" width="2" height="1" fill="#a01f1f"/>
<rect x="15" y="5" width="1" height="1" fill="#a01f1f"/>
<rect x="16" y="5" width="1" height="1" fill="#d23030"/>
<rect x="17" y="5" width="1" height="1" fill="#a01f1f"/>
<rect x="20" y="5" width="2" height="1" fill="#a01f1f"/>
<rect x="11" y="6" width="1" height="1" fill="#a01f1f"/>
<rect x="12" y="6" width="2" height="1" fill="#d23030"/>
<rect x="14" y="6" width="1" height="1" fill="#a01f1f"/>
<rect x="15" y="6" width="1" height="1" fill="#d23030"/>
<rect x="16" y="6" width="1" height="1" fill="#e85c5c"/>
<rect x="17" y="6" width="1" height="1" fill="#d23030"/>
<rect x="18" y="6" width="1" height="1" fill="#a01f1f"/>
<rect x="19" y="6" width="2" height="1" fill="#d23030"/>
<rect x="21" y="6" width="1" height="1" fill="#a01f1f"/>
<rect x="12" y="7" width="1" height="1" fill="#d23030"/>
<rect x="13" y="7" width="1" height="1" fill="#e85c5c"/>
<rect x="14" y="7" width="2" height="1" fill="#d23030"/>
<rect x="16" y="7" width="1" height="1" fill="#e85c5c"/>
<rect x="17" y="7" width="2" height="1" fill="#d23030"/>
<rect x="19" y="7" width="1" height="1" fill="#e85c5c"/>
<rect x="20" y="7" width="1" height="1" fill="#d23030"/>
<rect x="12" y="8" width="1" height="1" fill="#a01f1f"/>
<rect x="13" y="8" width="1" height="1" fill="#d23030"/>
<rect x="14" y="8" width="1" height="1" fill="#e85c5c"/>
<rect x="15" y="8" width="3" height="1" fill="#d23030"/>
<rect x="18" y="8" width="1" height="1" fill="#e85c5c"/>
<rect x="19" y="8" width="1" height="1" fill="#d23030"/>
<rect x="20" y="8" width="1" height="1" fill="#a01f1f"/>
<rect x="11" y="9" width="2" height="1" fill="#a01f1f"/>
<rect x="13" y="9" width="2" height="1" fill="#d23030"/>
<rect x="15" y="9" width="1" height="1" fill="#ffe680"/>
<rect x="16" y="9" width="2" height="1" fill="#f4c430"/>
<rect x="18" y="9" width="2" height="1" fill="#d23030"/>
<rect x="20" y="9" width="2" height="1" fill="#a01f1f"/>
<rect x="9" y="10" width="2" height="1" fill="#a01f1f"/>
<rect x="11" y="10" width="2" height="1" fill="#d23030"/>
<rect x="13" y="10" width="2" height="1" fill="#e85c5c"/>
<rect x="15" y="10" width="1" height="1" fill="#f4c430"/>
<rect x="16" y="10" width="1" height="1" fill="#ffe680"/>
<rect x="17" y="10" width="1" height="1" fill="#f4c430"/>
<rect x="18" y="10" width="1" height="1" fill="#d23030"/>
<rect x="19" y="10" width="1" height="1" fill="#e85c5c"/>
<rect x="20" y="10" width="2" height="1" fill="#d23030"/>
<rect x="22" y="10" width="2" height="1" fill="#a01f1f"/>
<rect x="10" y="11" width="2" height="1" fill="#d23030"/>
<rect x="12" y="11" width="2" height="1" fill="#e85c5c"/>
<rect x="14" y="11" width="1" height="1" fill="#d23030"/>
<rect x="15" y="11" width="2" height="1" fill="#f4c430"/>
<rect x="17" y="11" width="1" height="1" fill="#ffe680"/>
<rect x="18" y="11" width="1" height="1" fill="#d23030"/>
<rect x="19" y="11" width="2" height="1" fill="#e85c5c"/>
<rect x="21" y="11" width="2" height="1" fill="#d23030"/>
<rect x="12" y="12" width="2" height="1" fill="#d23030"/>
<rect x="14" y="12" width="1" height="1" fill="#e85c5c"/>
<rect x="15" y="12" width="3" height="1" fill="#d23030"/>
<rect x="18" y="12" width="1" height="1" fill="#e85c5c"/>
<rect x="19" y="12" width="2" height="1" fill="#d23030"/>
<rect x="12" y="13" width="1" height="1" fill="#d23030"/>
<rect x="13" y="13" width="1" height="1" fill="#e85c5c"/>
<rect x="14" y="13" width="2" height="1" fill="#d23030"/>
<rect x="16" y="13" width="1" height="1" fill="#e85c5c"/>
<rect x="17" y="13" width="2" height="1" fill="#d23030"/>
<rect x="19" y="13" width="1" height="1" fill="#e85c5c"/>
<rect x="20" y="13" width="1" height="1" fill="#d23030"/>
<rect x="11" y="14" width="1" height="1" fill="#a01f1f"/>
<rect x="12" y="14" width="2" height="1" fill="#d23030"/>
<rect x="14" y="14" width="1" height="1" fill="#a01f1f"/>
<rect x="15" y="14" width="1" height="1" fill="#d23030"/>
<rect x="16" y="14" width="1" height="1" fill="#e85c5c"/>
<rect x="17" y="14" width="1" height="1" fill="#d23030"/>
<rect x="18" y="14" width="1" height="1" fill="#a01f1f"/>
<rect x="19" y="14" width="2" height="1" fill="#d23030"/>
<rect x="21" y="14" width="1" height="1" fill="#a01f1f"/>
<rect x="11" y="15" width="1" height="1" fill="#a01f1f"/>
<rect x="12" y="15" width="1" height="1" fill="#d23030"/>
<rect x="13" y="15" width="1" height="1" fill="#a01f1f"/>
<rect x="14" y="15" width="1" height="1" fill="#2f6e2b"/>
<rect x="15" y="15" width="1" height="1" fill="#a01f1f"/>
<rect x="16" y="15" width="1" height="1" fill="#d23030"/>
<rect x="17" y="15" width="1" height="1" fill="#a01f1f"/>
<rect x="18" y="15" width="1" height="1" fill="#2f6e2b"/>
<rect x="19" y="15" width="1" height="1" fill="#a01f1f"/>
<rect x="20" y="15" width="1" height="1" fill="#d23030"/>
<rect x="21" y="15" width="1" height="1" fill="#a01f1f"/>
<rect x="11" y="16" width="2" height="1" fill="#a01f1f"/>
<rect x="13" y="16" width="1" height="1" fill="#4f9e2e"/>
<rect x="14" y="16" width="1" height="1" fill="#2f6e2b"/>
<rect x="15" y="16" width="1" height="1" fill="#a01f1f"/>
<rect x="16" y="16" width="1" height="1" fill="#d23030"/>
<rect x="17" y="16" width="1" height="1" fill="#a01f1f"/>
<rect x="18" y="16" width="1" height="1" fill="#2f6e2b"/>
<rect x="19" y="16" width="1" height="1" fill="#4f9e2e"/>
<rect x="20" y="16" width="2" height="1" fill="#a01f1f"/>
<rect x="11" y="17" width="1" height="1" fill="#2f6e2b"/>
<rect x="12" y="17" width="3" height="1" fill="#4f9e2e"/>
<rect x="15" y="17" width="1" height="1" fill="#2f6e2b"/>
<rect x="16" y="17" width="1" height="1" fill="#a01f1f"/>
<rect x="17" y="17" width="1" height="1" fill="#2f6e2b"/>
<rect x="18" y="17" width="3" height="1" fill="#4f9e2e"/>
<rect x="21" y="17" width="1" height="1" fill="#2f6e2b"/>
<rect x="10" y="18" width="1" height="1" fill="#2f6e2b"/>
<rect x="11" y="18" width="1" height="1" fill="#4f9e2e"/>
<rect x="12" y="18" width="4" height="1" fill="#2f6e2b"/>
<rect x="16" y="18" width="1" height="1" fill="#a01f1f"/>
<rect x="17" y="18" width="4" height="1" fill="#2f6e2b"/>
<rect x="21" y="18" width="1" height="1" fill="#4f9e2e"/>
<rect x="22" y="18" width="1" height="1" fill="#2f6e2b"/>
<rect x="9" y="19" width="3" height="1" fill="#2f6e2b"/>
<rect x="15" y="19" width="1" height="1" fill="#2f6e2b"/>
<rect x="16" y="19" width="1" height="1" fill="#4f9e2e"/>
<rect x="17" y="19" width="1" height="1" fill="#2f6e2b"/>
<rect x="21" y="19" width="3" height="1" fill="#2f6e2b"/>
<rect x="16" y="20" width="1" height="1" fill="#2f6e2b"/>
<!-- terracotta pot -->
<rect x="9" y="19" width="14" height="2" fill="#c97f4f"/>
<rect x="9" y="21" width="14" height="1" fill="#b5663c"/>
<rect x="10" y="22" width="12" height="2" fill="#b5663c"/>
<rect x="11" y="24" width="10" height="2" fill="#b5663c"/>
<rect x="12" y="26" width="8" height="2" fill="#b5663c"/>
<rect x="13" y="28" width="6" height="1" fill="#b5663c"/>
<rect x="18" y="22" width="4" height="2" fill="#8a4a28"/>
<rect x="17" y="24" width="4" height="2" fill="#8a4a28"/>
<rect x="16" y="26" width="4" height="2" fill="#8a4a28"/>
<rect x="15" y="28" width="4" height="1" fill="#8a4a28"/>
<rect x="10" y="22" width="2" height="2" fill="#c97f4f"/>
<rect x="11" y="24" width="2" height="2" fill="#c97f4f"/>
<rect x="20" y="19" width="3" height="1" fill="#b5663c"/>
</svg>
