<svg xmlns="http://www.w3.org/2000/svg" viewBox="0 0 32 32" shape-rendering="crispEdges" width="256" height="256">
<rect x="5" y="22" width="22" height="4" fill="#cfcabb"/>
<rect x="6" y="21" width="20" height="4" fill="#f6f4ea"/>
<rect x="8" y="20" width="16" height="1" fill="#f6f4ea"/>
<rect x="7" y="25" width="18" height="1" fill="#cfcabb"/>
<rect x="20" y="22" width="2" height="2" fill="#4f9e2e"/>
<rect x="20" y="22" width="1" height="1" fill="#3e8a37"/>
<rect x="9" y="23" width="2" height="2" fill="#4f9e2e"/>
<rect x="10" y="24" width="1" height="1" fill="#3e8a37"/>
<rect x="23" y="20" width="1" height="1" fill="#4f9e2e"/>
<rect x="11" y="12" width="13" height="2" fill="#a9744f"/>
<rect x="10" y="14" width="13" height="1" fill="#a9744f"/>
<rect x="12" y="11" width="9" height="1" fill="#a9744f"/>
<rect x="13" y="11" width="6" height="1" fill="#c79a6d"/>
<rect x="11" y="13" width="5" height="1" fill="#c79a6d"/>
<rect x="18" y="13" width="4" height="1" fill="#c79a6d"/>
<rect x="10" y="15" width="11" height="6" fill="#8a5a3a"/>
<rect x="11" y="16" width="3" height="1" fill="#a9744f"/>
<rect x="10" y="20" width="11" height="1" fill="#5e3c18"/>
<rect x="21" y="14" width="3" height="7" fill="#5e3c18"/>
<rect x="21" y="15" width="3" height="1" fill="#6e4824"/>
<rect x="10" y="14" width="1" height="7" fill="#5e3c18"/>
</svg>
