<svg xmlns="http://www.w3.org/2000/svg" viewBox="0 0 32 32" shape-rendering="crispEdges" width="256" height="256">
<!-- stem -->
<rect x="15" y="3" width="2" height="2" fill="#2f6e2b"/>
<rect x="15" y="2" width="1" height="1" fill="#4f9e2e"/>
<!-- calyx (green star, 5 leaves) -->
<rect x="13" y="6" width="6" height="1" fill="#4f9e2e"/>
<rect x="11" y="7" width="3" height="1" fill="#6fb863"/>
<rect x="18" y="7" width="3" height="1" fill="#4f9e2e"/>
<rect x="14" y="5" width="1" height="2" fill="#6fb863"/>
<rect x="17" y="5" width="1" height="2" fill="#4f9e2e"/>
<rect x="12" y="7" width="8" height="1" fill="#4f9e2e"/>
<rect x="13" y="8" width="6" height="1" fill="#2f6e2b"/>
<rect x="10" y="7" width="2" height="1" fill="#6fb863"/>
<rect x="20" y="7" width="2" height="1" fill="#2f6e2b"/>
<!-- tomato body: stepped rounded shape -->
<rect x="11" y="8" width="2" height="1" fill="#d83a3a"/>
<rect x="19" y="8" width="2" height="1" fill="#d83a3a"/>
<rect x="9" y="9" width="14" height="1" fill="#d83a3a"/>
<rect x="7" y="10" width="18" height="1" fill="#d83a3a"/>
<rect x="6" y="11" width="20" height="1" fill="#d83a3a"/>
<rect x="5" y="12" width="22" height="1" fill="#d83a3a"/>
<rect x="5" y="13" width="22" height="1" fill="#d83a3a"/>
<rect x="4" y="14" width="24" height="1" fill="#d83a3a"/>
<rect x="4" y="15" width="24" height="1" fill="#d83a3a"/>
<rect x="4" y="16" width="24" height="1" fill="#d83a3a"/>
<rect x="4" y="17" width="24" height="1" fill="#d83a3a"/>
<rect x="4" y="18" width="24" height="1" fill="#d83a3a"/>
<rect x="5" y="19" width="22" height="1" fill="#d83a3a"/>
<rect x="5" y="20" width="22" height="1" fill="#d83a3a"/>
<rect x="6" y="21" width="20" height="1" fill="#d83a3a"/>
<rect x="7" y="22" width="18" height="1" fill="#d83a3a"/>
<rect x="9" y="23" width="14" height="1" fill="#d83a3a"/>
<rect x="11" y="24" width="10" height="1" fill="#d83a3a"/>
<!-- highlight upper-left -->
<rect x="8" y="11" width="3" height="1" fill="#f0a0a0"/>
<rect x="7" y="12" width="5" height="1" fill="#f0a0a0"/>
<rect x="6" y="13" width="4" height="1" fill="#f0a0a0"/>
<rect x="6" y="14" width="2" height="1" fill="#f0a0a0"/>
<rect x="9" y="11" width="2" height="1" fill="#ffffff"/>
<rect x="8" y="12" width="2" height="1" fill="#ffffff"/>
<!-- shading lower-right -->
<rect x="22" y="18" width="6" height="1" fill="#b52a2a"/>
<rect x="21" y="19" width="6" height="1" fill="#b52a2a"/>
<rect x="20" y="20" width="7" height="1" fill="#b52a2a"/>
<rect x="19" y="21" width="7" height="1" fill="#b52a2a"/>
<rect x="17" y="22" width="8" height="1" fill="#b52a2a"/>
<rect x="15" y="23" width="8" height="1" fill="#b52a2a"/>
<rect x="13" y="24" width="8" height="1" fill="#b52a2a"/>
<rect x="22" y="20" width="5" height="1" fill="#8f2020"/>
<rect x="20" y="22" width="5" height="1" fill="#8f2020"/>
<rect x="17" y="23" width="6" height="1" fill="#8f2020"/>
<rect x="14" y="24" width="6" height="1" fill="#8f2020"/>
</svg>
